# xmcd
#
# Track frame offsets: 
#        150
#        16995
#        29690
#        48985
#        67893
#        78115
#        92205
#        101633
#        111095
#        124315
#        134530
#        145055
#        153923
#        163275
#        173485
#
# Disc length: 2450 seconds
#
# Revision: 3
# Processed by: cddbd v1.5.2PL0 Copyright (c) Steve Scherf et al.
# Submitted via: ExactAudioCopy v1.0b3
#
DISCID=c409900f
DTITLE=Cappella Augustana, Matteo Messori - Schütz Edition II cd3 - Kl
DTITLE=eine geistliche Concerte, 1636, SWV 282-305, Vol 1
DYEAR=2004
DGENRE=Barok
TTITLE0=I Eile mich, Gott, zu erretten
TTITLE1=II Bringt her dem Herren, ihr Gewaltigen
TTITLE2=III Ich danke dem Herrn von ganzem Herzen
TTITLE3=IV O süßer, o freundlicher, o gütiger Herr Jesu Christe
TTITLE4=V Der Herr ist groß
TTITLE5=VI O lieber Herre Gott
TTITLE6=VII Ihr Heiligen, lobsinget dem Herren
TTITLE7=VIII Erhöre mich, wenn ich rufe
TTITLE8=IX Wohl dem, der nicht wandelt im Rat der Gottlosen
TTITLE9=X Schaffe in mir, Gott, ein reines Herz
TTITLE10=XI Der Herr schauet vom Himmel
TTITLE11=XII Lobet den Herren, der zu Zion wohnet
TTITLE12=XIII Eins bitte ich vom Herren
TTITLE13=XIV O hilf, Christe, Gottes Sohn
TTITLE14=XV Fürchte dich nicht
EXTD=
EXTT0=
EXTT1=
EXTT2=
EXTT3=
EXTT4=
EXTT5=
EXTT6=
EXTT7=
EXTT8=
EXTT9=
EXTT10=
EXTT11=
EXTT12=
EXTT13=
EXTT14=
PLAYORDER=
